<svg xmlns="http://www.w3.org/2000/svg" width="19.744" height="19.48" viewBox="0 0 19.744 19.48"><path id="Trac&#xE9;_365" data-name="Trac&#xE9; 365" d="M19.67,70.008,18.522,62.5,8.235,60.406a.843.843,0,0,1,.336-1.652l9.68,1.967-.549-3.59A4.533,4.533,0,0,0,13,53.59H6.629c-2.648,0-4.494,1.4-4.7,3.559l0,.011L.9,64.177,11.366,66.3a.846.846,0,0,1,.658.994h0a.846.846,0,0,1-.994.658L.654,65.847.048,70A2.811,2.811,0,0,0,.5,72.233a3.137,3.137,0,0,0,2.471.837H16.71A3.281,3.281,0,0,0,19.3,72.2a2.7,2.7,0,0,0,.375-2.189Z" transform="translate(0.002 -53.59)" fill="#fff"></path></svg>