<svg id="Capa_1" data-name="Capa 1" xmlns="http://www.w3.org/2000/svg" viewBox="0 0 640.21 801"><defs><style>.cls-1{fill:#fff;stroke:#fff;stroke-miterlimit:10;}</style></defs><path class="cls-1" d="M719.6,696.36l-46-518.82a19.73,19.73,0,0,0-19.88-18h-97C556.49,73.21,486.28,3,400,3S243.51,73.21,243.35,159.49h-97a20,20,0,0,0-19.88,18l-46,518.82v1.82C80.4,756,133.55,803,198.8,803H601.2c65.25,0,118.4-47,118.4-104.82ZM400,33.74c64.42,0,116.75,52.33,116.91,116.75H283.09C283.25,86.07,335.58,33.74,400,33.74Z" transform="translate(-79.9 -2.5)"/></svg>